CAN’T YOU HEAR THE WIND HOWL
THE LIFE AND MUSIC OF ROBERT JOHNSON
Released :1997 
 Studio: Winstar Home Entertainment 
 DVD Release Date: 1 July 1999 
Run Time: 76 minutes
Format: avi/mpeg



This ambitious mixture of dramatic reconstruction with traditional documentary affords excellent insight into legendary bluesman Robert Johnson\\\\\\\'s life, the enduring power of his music, and the myth which surrounds him. Can\\\\\\\'t You Hear The Wind Howl transcends its genre of \\\\\\\"docudrama,\\\\\\\" providing the well-researched information we\\\\\\\'d expect from a conventional documentary with the dramatic impact we could hope for from a Hollywood film. 
Contemporary bluesman Keb\\\\\\\' Mo\\\\\\\' (Kevin Moore) plays Johnson, and Danny Glover narrates, but the real star is Robert Johnson\\\\\\\'s music. The film\\\\\\\'s strength is its power of suggestion; we never see the Johnson character up close, never hear him talk. As if in a dream, he flits in and out of scenes, whether courting his girlfriend or stirring a juke joint to mayhem. But you\\\\\\\'d be hard put picking him out of a police lineup. We never see him such that we can know him, which is an accurate representation of the elusive musician, according to the interview footage with Johnson\\\\\\\'s proteges and peers--among them Johnny Shines, Robert Lockwood Jr., and Honeyboy Edwards. Keb\\\\\\\' Mo\\\\\\\', who has included Robert Johnson songs on each of his three CDs, says that portraying Johnson had a lasting effect. \\\\\\\"It\\\\\\\'s an internal thing,\\\\\\\" says Mo\\\\\\\'. \\\\\\\"In playing him, you pull in some of the spirit. The spirit of a juke joint, the spirit of the south at that time.\\\\\\\" This film falls nicely between an homage and an explanation. 


Directed by Peter Meyer
Danny Glover Narrator
Eric Clapton
Robert Cray
John Hammond
Robert Lockwood Jr
Marcus M. Mauldin ( Johnny Shine)
Liz Mikel (Nickle Lady)
Keb\\\\\\\' Mo\\\\\\\'( Robert Johnson)
Keith Richards
Johnny Shines
Yolonda Williams (Callie / Virginia)




General
Complete name                    : F:\\\\\\\\Cant You Hear The Wind Howl.avi
Format                           : AVI
File size                        : 931 MiB
Duration                         : 1h 15mn
Overall bit rate                 : 1 714 Kbps
Writing application              : Lavf52.57.1
Writing library                  : Boilsoft AVI tool build 1/release

Video
ID                               : 0
Format                           : MPEG-4 Visual
Codec ID                         : FMP4
Duration                         : 1h 15mn
Bit rate                         : 1 572 Kbps
Width                            : 720 pixels
Height                           : 480 pixels
Display aspect ratio             : 3:2
Frame rate                       : 29.970 fps
Standard                         : NTSC
Color space                      : YUV
Chroma subsampling               : 4:2:0
Bits/(Pixel*Frame)               : 0.152
Stream size                      : 854 MiB (92%)

Audio
ID                               : 1
Format                           : MPEG Audio Version 1 Layer 3
Mode                             : Joint stereo
Codec ID                         : 55
Codec ID/Hint                    : MP3
Duration                         : 1h 15mn
Bit rate mode                    : Constant
Bit rate                         : 128 Kbps
Channel(s)                       : 2 channels
Sampling rate                    : 48.0 KHz
Stream size                      : 69.5 MiB (7%)
Alignment                        : Aligned on interleaves
Interleave, duration             : 24 ms (0.72 video frame)
Interleave, preload duration     : 504 ms

